<?xml version="1.0" standalone="no"?>
<!DOCTYPE svg PUBLIC "-//W3C//DTD SVG 20010904//EN"
 "http://www.w3.org/TR/2001/REC-SVG-20010904/DTD/svg10.dtd">
<svg version="1.0" xmlns="http://www.w3.org/2000/svg"
 width="915.000000pt" height="614.000000pt" viewBox="0 0 915.000000 614.000000"
 preserveAspectRatio="xMidYMid meet">

<g transform="translate(0.000000,614.000000) scale(0.100000,-0.100000)"
fill="#000000" stroke="none">
<path d="M4256 5191 c-4 -5 -26 -8 -51 -7 -25 1 -45 -1 -45 -4 0 -4 -28 -10
-61 -14 -34 -3 -67 -10 -73 -15 -6 -5 -32 -12 -58 -15 -27 -4 -48 -11 -48 -17
0 -5 -10 -9 -23 -9 -12 0 -31 -6 -42 -14 -11 -7 -35 -17 -52 -21 -18 -3 -33
-10 -33 -15 0 -5 -13 -11 -30 -15 -16 -4 -30 -10 -30 -15 0 -5 -13 -11 -30
-15 -16 -4 -30 -10 -30 -15 0 -5 -13 -11 -29 -15 -16 -3 -32 -13 -35 -21 -3
-8 -12 -14 -21 -14 -8 0 -15 -4 -15 -9 0 -5 -10 -13 -22 -16 -11 -4 -31 -18
-43 -31 -12 -13 -26 -24 -32 -24 -5 0 -20 -13 -33 -30 -14 -16 -30 -29 -36
-30 -14 0 -157 -140 -151 -147 3 -2 -12 -21 -34 -41 -21 -20 -39 -41 -39 -45
0 -4 -11 -18 -24 -30 -14 -13 -28 -35 -31 -50 -4 -15 -11 -27 -16 -27 -9 0 -6
6 -122 -225 -78 -155 -91 -175 -113 -175 -13 0 -24 -4 -24 -9 0 -5 -27 -12
-60 -16 -33 -4 -60 -10 -60 -15 0 -4 -29 -11 -65 -15 -36 -3 -65 -10 -65 -15
0 -4 -20 -11 -45 -14 -25 -4 -45 -11 -45 -15 0 -5 -16 -11 -35 -14 -19 -3 -42
-13 -51 -21 -8 -9 -26 -16 -40 -16 -13 0 -24 -4 -24 -9 0 -5 -13 -12 -30 -16
-16 -4 -30 -10 -30 -15 0 -4 -8 -11 -17 -14 -10 -4 -36 -18 -58 -31 -22 -14
-48 -28 -57 -31 -10 -4 -18 -10 -18 -15 0 -6 -8 -13 -18 -17 -23 -9 -72 -46
-118 -89 -19 -18 -39 -33 -44 -33 -12 0 -70 -62 -70 -75 0 -6 -25 -33 -56 -60
-30 -28 -60 -59 -65 -70 -14 -31 -32 -57 -56 -80 -12 -11 -25 -33 -28 -48 -4
-15 -11 -27 -16 -27 -10 0 -34 -49 -31 -62 1 -5 -2 -8 -7 -8 -5 0 -12 -13 -16
-30 -4 -16 -10 -30 -15 -30 -5 0 -11 -13 -15 -30 -4 -16 -11 -30 -15 -30 -5 0
-12 -16 -16 -35 -3 -19 -10 -37 -14 -40 -5 -3 -11 -23 -15 -45 -4 -22 -11 -40
-15 -40 -5 0 -12 -26 -16 -57 -3 -32 -10 -63 -15 -69 -4 -5 -11 -47 -15 -92
-4 -45 -11 -82 -15 -82 -5 0 -9 -40 -9 -90 0 -49 4 -90 8 -90 5 0 12 -59 15
-132 4 -72 11 -134 16 -137 5 -3 12 -32 16 -63 4 -32 11 -58 16 -58 4 0 11
-20 15 -45 3 -25 10 -45 15 -45 4 0 11 -20 15 -45 3 -25 10 -45 14 -45 5 0 11
-14 15 -30 4 -16 10 -30 15 -30 5 0 11 -14 15 -30 4 -17 10 -30 15 -30 5 0 11
-14 15 -31 4 -17 13 -33 20 -35 7 -3 16 -17 20 -31 6 -26 14 -38 57 -85 16
-16 28 -35 28 -41 0 -7 13 -23 30 -37 16 -14 30 -29 30 -33 0 -10 165 -177
175 -177 3 0 20 -13 37 -30 16 -16 35 -30 43 -30 7 0 15 -7 19 -15 3 -8 12
-15 21 -15 8 0 15 -4 15 -9 0 -5 16 -15 35 -21 19 -6 41 -20 48 -30 7 -10 25
-22 40 -25 15 -4 27 -11 27 -15 0 -5 14 -11 30 -15 17 -4 30 -10 30 -15 0 -5
13 -11 30 -15 17 -4 30 -11 30 -17 0 -6 7 -7 16 -4 9 3 28 -3 43 -13 15 -11
43 -22 64 -26 20 -4 39 -11 42 -15 3 -5 23 -11 45 -15 22 -4 42 -11 46 -16 3
-5 10 -7 15 -3 5 3 16 1 23 -5 20 -16 4224 -11 4234 6 4 6 20 15 35 18 15 4
27 11 27 15 0 5 14 11 30 15 17 4 30 10 30 15 0 5 14 11 30 15 17 4 30 11 30
16 0 5 7 9 15 9 9 0 18 6 21 14 3 8 19 18 35 21 16 4 29 10 29 15 0 5 10 12
22 16 12 4 33 20 47 35 14 16 29 29 34 29 5 0 42 34 84 75 41 41 71 75 66 75
-4 0 9 16 31 36 21 19 36 38 32 41 -3 3 4 14 15 24 11 9 19 19 18 21 -5 6 46
108 54 108 5 0 5 5 2 10 -3 5 -2 10 4 10 5 0 12 18 16 40 4 22 11 40 15 40 5
0 12 16 16 35 3 19 10 35 15 35 4 0 11 31 15 70 3 38 11 70 15 70 12 0 12 347
0 354 -5 3 -12 35 -16 71 -3 36 -10 65 -15 65 -5 0 -12 20 -16 45 -3 25 -10
45 -15 45 -5 0 -9 6 -9 14 0 8 -4 25 -9 38 -5 13 -9 27 -9 32 0 5 -4 12 -9 15
-11 8 -32 42 -39 64 -4 9 -10 17 -15 17 -5 0 -9 6 -9 13 0 8 -9 22 -20 32 -11
10 -20 23 -20 30 0 6 -16 25 -36 41 -20 16 -40 39 -45 52 -5 12 -17 26 -26 29
-10 4 -57 46 -104 95 l-86 87 -7 233 c-3 127 -10 234 -15 238 -4 3 -11 37 -15
75 -4 39 -11 71 -16 73 -5 2 -12 19 -16 38 -3 19 -10 34 -14 34 -5 0 -11 14
-15 30 -4 17 -10 30 -15 30 -5 0 -11 14 -15 30 -4 17 -11 30 -16 30 -5 0 -14
10 -19 23 -14 32 -32 58 -56 81 -12 12 -23 26 -25 33 -6 17 -160 173 -171 173
-5 0 -21 13 -36 28 -15 16 -44 36 -64 46 -21 9 -38 21 -38 26 0 4 -13 11 -30
15 -16 4 -30 10 -30 15 0 5 -13 11 -30 15 -16 4 -30 10 -30 15 0 5 -21 12 -47
16 -27 3 -54 12 -62 18 -10 7 -116 12 -328 14 -306 4 -315 5 -337 25 -12 12
-30 39 -40 60 -9 20 -21 37 -25 37 -5 0 -12 8 -15 18 -12 33 -37 72 -46 72 -5
0 -12 10 -16 22 -5 18 -33 49 -133 149 -100 100 -131 128 -149 133 -12 4 -22
12 -22 17 0 5 -6 9 -13 9 -8 0 -22 9 -32 20 -10 11 -24 20 -30 20 -7 0 -15 7
-19 15 -3 8 -12 15 -21 15 -8 0 -15 4 -15 9 0 5 -11 12 -25 15 -14 4 -25 10
-25 15 0 5 -13 12 -30 16 -16 4 -30 10 -30 15 0 4 -12 11 -27 14 -33 8 -97 38
-101 48 -2 4 -20 10 -40 14 -20 3 -51 12 -69 20 -17 8 -40 14 -52 14 -12 0
-21 5 -21 11 0 8 -12 10 -35 6 -19 -3 -37 -1 -40 4 -4 5 -28 9 -56 9 -27 0
-49 5 -49 10 0 6 -19 11 -42 11 -24 1 -98 3 -165 6 -74 2 -123 0 -127 -6z
m244 -250 c0 -4 41 -11 92 -15 50 -3 94 -10 97 -15 3 -5 30 -12 59 -16 28 -4
52 -11 52 -15 0 -5 19 -11 42 -15 23 -4 48 -14 56 -21 7 -8 22 -14 33 -14 10
0 19 -4 19 -9 0 -5 17 -15 38 -22 20 -6 50 -22 65 -35 16 -13 33 -24 38 -24
10 0 22 -9 83 -65 22 -19 42 -35 46 -35 12 0 190 -180 187 -189 -1 -4 13 -20
31 -35 17 -15 30 -32 27 -37 -3 -4 3 -14 15 -21 11 -7 20 -19 20 -27 0 -7 6
-19 14 -25 8 -6 16 -20 18 -31 2 -11 8 -24 15 -30 6 -5 13 -19 15 -30 2 -11 9
-25 16 -30 7 -6 14 -20 15 -33 0 -12 4 -22 8 -22 8 0 25 -49 24 -70 0 -8 5
-19 12 -25 7 -5 15 -30 17 -54 2 -24 9 -47 15 -50 6 -4 12 -51 13 -117 2 -60
7 -112 12 -115 5 -4 8 -44 7 -90 -1 -46 1 -119 5 -161 l7 -78 41 0 c23 0 47
-5 53 -11 5 -5 32 -9 58 -7 44 3 49 6 57 33 10 36 11 469 2 549 -4 31 -11 59
-15 62 -17 10 -9 64 14 87 21 21 28 22 218 22 129 0 201 -4 210 -11 8 -6 28
-14 44 -18 41 -10 175 -76 175 -87 0 -5 9 -9 20 -9 11 0 23 -7 26 -15 4 -8 11
-15 16 -15 12 0 173 -160 173 -172 0 -5 5 -12 11 -16 6 -4 14 -17 18 -29 4
-13 11 -23 16 -23 4 0 11 -12 15 -27 3 -15 12 -31 18 -35 6 -3 12 -17 14 -29
2 -13 8 -26 14 -29 5 -4 12 -31 16 -61 3 -30 10 -57 15 -60 5 -3 12 -60 15
-127 3 -67 10 -122 15 -122 4 0 8 -21 8 -46 l0 -46 -142 7 c-79 4 -144 11
-146 16 -2 5 -24 9 -48 9 l-44 0 0 -90 c0 -53 4 -90 10 -90 6 0 10 -9 10 -20
0 -11 7 -20 15 -20 8 0 15 -4 15 -9 0 -5 34 -12 75 -16 41 -4 75 -11 75 -16 0
-4 20 -11 45 -15 25 -3 45 -10 45 -15 0 -4 20 -11 45 -15 25 -3 45 -10 45 -14
0 -5 13 -11 29 -15 16 -3 32 -13 35 -21 3 -8 12 -14 21 -14 8 0 15 -4 15 -10
0 -5 7 -10 15 -10 8 0 23 -9 32 -20 10 -11 21 -20 25 -20 12 0 123 -113 121
-122 -2 -4 8 -15 21 -25 13 -10 26 -29 30 -41 4 -12 11 -22 16 -22 5 0 11 -13
15 -30 4 -17 10 -30 15 -30 5 0 11 -13 15 -30 4 -16 11 -30 15 -30 5 0 12 -16
16 -35 3 -19 10 -35 15 -35 4 0 11 -31 15 -70 3 -38 11 -70 15 -70 5 0 9 -74
9 -165 0 -91 -4 -165 -9 -165 -5 0 -12 -11 -15 -25 -4 -14 -27 -45 -51 -69
-25 -23 -45 -48 -45 -54 0 -7 -6 -12 -13 -12 -7 0 -23 -13 -37 -30 -14 -16
-32 -30 -40 -30 -8 0 -21 -9 -27 -19 -14 -22 -226 -131 -254 -131 -11 0 -19
-4 -19 -10 0 -5 -16 -12 -35 -16 -19 -3 -38 -10 -41 -15 -7 -12 -3924 -12
-3924 0 0 4 -85 10 -190 13 -105 3 -195 10 -202 15 -7 6 -34 14 -60 17 -27 4
-48 11 -48 15 0 5 -20 12 -45 15 -25 4 -45 11 -45 16 0 6 -18 13 -40 16 -22 4
-40 10 -40 14 0 5 -13 11 -30 15 -17 4 -30 11 -30 16 0 5 -7 9 -15 9 -9 0 -18
6 -21 14 -3 8 -17 17 -32 21 -15 3 -48 24 -74 46 -26 21 -50 39 -53 39 -13 0
-161 156 -175 185 -8 17 -21 34 -27 38 -7 4 -13 13 -13 19 0 6 -9 19 -21 29
-11 10 -18 23 -14 28 3 6 2 11 -4 11 -5 0 -12 14 -16 30 -4 17 -11 30 -15 30
-5 0 -12 23 -16 50 -4 28 -10 50 -15 50 -5 0 -9 138 -9 306 0 228 3 303 12
298 8 -5 9 2 5 23 -4 22 -1 36 12 50 10 10 21 36 25 56 4 20 11 37 16 37 5 0
12 16 16 35 3 19 10 35 15 35 5 0 6 7 3 15 -4 8 -1 15 5 15 6 0 11 7 11 15 0
8 4 15 10 15 5 0 12 11 16 25 3 14 10 25 16 25 5 0 7 4 3 9 -3 5 5 17 17 25
12 9 19 19 15 22 -4 4 3 15 15 25 11 11 17 19 12 19 -5 0 4 11 19 25 15 14 27
31 27 37 0 15 194 205 218 212 11 4 23 13 26 21 3 8 12 15 21 15 8 0 15 4 15
10 0 5 11 12 24 16 14 3 27 12 30 20 3 8 12 14 21 14 8 0 15 4 15 10 0 5 11
12 25 16 14 3 25 10 25 14 0 4 12 11 26 14 15 4 33 14 41 21 8 8 25 15 39 15
13 0 24 4 24 9 0 6 20 13 45 17 25 3 45 10 45 14 0 4 28 11 63 15 34 4 67 11
72 15 6 4 25 10 43 13 l32 7 0 -120 c0 -66 4 -120 9 -120 4 0 11 -48 15 -107
4 -59 11 -112 16 -118 5 -6 12 -34 16 -63 3 -28 10 -52 14 -52 4 0 11 -25 15
-55 3 -30 10 -55 15 -55 5 0 12 -16 16 -35 3 -19 10 -35 14 -35 5 0 11 -13 15
-30 4 -16 10 -30 15 -30 4 0 10 -14 14 -31 5 -28 7 -29 22 -15 8 9 22 16 30
16 8 0 14 4 14 9 0 5 14 12 30 16 17 4 30 10 30 15 0 5 14 11 30 15 17 4 30
10 31 13 6 38 4 62 -3 62 -5 0 -6 9 -3 20 4 12 1 28 -6 36 -11 13 -14 27 -18
76 0 9 -7 23 -14 30 -7 7 -14 33 -16 58 -1 25 -9 48 -17 53 -20 11 -20 510 1
530 8 8 15 36 16 62 2 26 8 53 14 59 6 6 14 29 18 50 3 22 11 42 16 45 5 4 11
21 13 39 2 18 10 37 18 42 8 6 12 10 8 10 -4 0 -2 13 3 30 6 16 14 28 18 26 4
-3 8 5 8 17 1 12 11 28 21 37 10 8 26 31 35 51 9 20 24 39 32 43 8 3 13 11 10
18 -2 7 11 24 29 38 19 14 32 28 30 32 -7 11 152 168 170 168 9 0 16 7 16 15
0 8 7 15 15 15 8 0 15 5 15 10 0 6 6 10 13 10 8 0 22 9 32 20 10 11 24 20 32
20 7 0 13 4 13 9 0 5 14 12 30 16 17 4 30 13 30 20 0 7 14 16 30 20 17 4 30
11 30 16 0 5 13 9 29 9 16 0 34 7 41 15 7 8 27 17 46 21 19 3 34 10 34 15 0 5
9 9 19 9 11 0 22 4 26 9 3 5 21 7 40 4 22 -3 35 -2 35 5 0 6 38 13 90 18 50 3
90 10 90 15 0 5 50 9 110 9 61 0 110 -4 110 -9z"/>
</g>
</svg>
