<?xml version="1.0" encoding="UTF-8"?>
<svg xmlns="http://www.w3.org/2000/svg" xmlns:xlink="http://www.w3.org/1999/xlink" version="1.2" >
<font id="Hacim Bold-Demo">
<font-face  font-family="Hacim" units-per-em="1024" ascent="1007" descent="-312" font-style="normal" font-weight="700" font-stretch="normal" cap-height="1007" x-height="504" underline-position="0" underline-thickness="0" />
<missing-glyph  horiz-adv-x="512" d="" />
<glyph glyph-name="space" unicode="&#x20;" horiz-adv-x="217" d="" />
<glyph glyph-name="zero" unicode="0" horiz-adv-x="654" d="M326 767 Q393 767 445.5 740.5 Q498 714 534.5 664.5 Q571 615 590 543 Q609 471 609 379 Q609 -10 326 -10 Q42 -10 42 379 Q42 471 61 543 Q80 615 116.5 664.5 Q153 714 206 740.5 Q259 767 326 767 Z M175 379 Q175 95 326 95 Q476 95 476 379 Q476 515 437 589 Q398 663 326 663 Q254 663 214.5 589 Q175 515 175 379 Z " />
<glyph glyph-name="one" unicode="1" horiz-adv-x="375" d="M18 722 L185 757 L285 757 L285 0 L157 0 L157 629 L18 602 L18 722 Z " />
<glyph glyph-name="two" unicode="2" horiz-adv-x="556" d="M35 0 Q35 69 43.5 117.5 Q52 166 71 201.5 Q90 237 120 264 Q150 291 193 317 Q281 371 334.5 429.5 Q388 488 388 542 Q388 606 358.5 634.5 Q329 663 278 663 Q226 663 194.5 630 Q163 597 163 540 Q163 528 163 520.5 Q163 513 162 514 L39 514 L39 540 Q39 591 56 633 Q73 675 104.5 704.5 Q136 734 180 750.5 Q224 767 278 767 Q332 767 375.5 753 Q419 739 450.5 710 Q482 681 499 637 Q516 593 516 533 Q516 497 503 462 Q490 427 466.5 394.5 Q443 362 410 332.5 Q377 303 337 278 Q277 242 241.5 207.5 Q206 173 189 124 L531 124 L531 0 L35 0 Z " />
<glyph glyph-name="three" unicode="3" horiz-adv-x="553" d="M36 247 L169 247 Q169 178 197.5 141 Q226 104 277 104 Q328 104 354.5 133 Q381 162 381 216 Q381 282 347 317.5 Q313 353 252 353 L192 353 L192 452 L272 452 Q318 452 343.5 480.5 Q369 509 369 561 Q369 609 343.5 636 Q318 663 272 663 Q234 663 212.5 632.5 Q191 602 191 545 L63 545 Q63 651 118.5 709 Q174 767 276 767 Q378 767 433 716 Q488 665 488 571 Q488 514 463.5 473.5 Q439 433 391 412 Q452 386 485 333.5 Q518 281 518 211 Q518 105 455 47.5 Q392 -10 277 -10 Q162 -10 99 57 Q36 124 36 247 Z " />
<glyph glyph-name="four" unicode="4" horiz-adv-x="549" d="M15 218 L15 318 L350 757 L450 757 L450 333 L539 333 L539 219 L450 219 L450 0 L322 0 L322 219 L122 219 L15 218 Z M143 333 L322 333 L322 558 L323 567 L143 333 Z " />
<glyph glyph-name="five" unicode="5" horiz-adv-x="549" d="M38 247 L166 247 Q166 181 197 140.5 Q228 100 279 100 Q328 100 357.5 137 Q387 174 387 237 Q387 306 357.5 348.5 Q328 391 279 391 Q263 391 237 373 Q211 355 185 326 L66 353 L87 757 L486 757 Q484 737 483 715 Q482 693 480 676 Q479 665 478.5 655.5 Q478 646 477 636 L208 636 L194 452 Q220 471 248 481.5 Q276 492 302 492 Q351 492 391 473.5 Q431 455 459.5 421.5 Q488 388 503.5 341 Q519 294 519 237 Q519 182 502 136 Q485 90 453.5 58 Q422 26 377.5 8 Q333 -10 279 -10 Q225 -10 180.5 8.5 Q136 27 104.5 61 Q73 95 55.5 142 Q38 189 38 247 Z " />
<glyph glyph-name="six" unicode="6" horiz-adv-x="559" d="M46 373 Q46 462 62.5 534.5 Q79 607 111.5 658.5 Q144 710 193 738.5 Q242 767 306 767 Q337 767 368.5 758 Q400 749 428 732.5 Q456 716 479.5 693 Q503 670 519 641 L424 579 Q401 619 368.5 643.5 Q336 668 306 668 Q275 668 251 648.5 Q227 629 211 593 Q195 557 187 507 Q179 457 179 396 Q202 444 239.5 473.5 Q277 503 315 503 Q366 503 408.5 484.5 Q451 466 481 432.5 Q511 399 527.5 352 Q544 305 544 247 Q544 189 526.5 142 Q509 95 477 61 Q445 27 400 8.5 Q355 -10 300 -10 Q46 -10 46 373 Z M300 95 Q348 95 377.5 136.5 Q407 178 407 247 Q407 316 376 357.5 Q345 399 291 399 Q245 399 217 358.5 Q189 318 189 251 Q213 95 300 95 Z " />
<glyph glyph-name="seven" unicode="7" horiz-adv-x="444" d="M20 757 L444 757 L444 634 Q389 538 350 455 Q311 372 286 296 Q261 220 249.5 147.5 Q238 75 238 0 L95 0 Q95 57 108.5 120 Q122 183 151.5 259 Q181 335 227.5 427 Q274 519 340 634 L20 634 L20 757 Z " />
<glyph glyph-name="eight" unicode="8" horiz-adv-x="583" d="M47 205 Q47 286 81.5 334.5 Q116 383 177 405 Q125 427 100.5 469.5 Q76 512 76 570 Q76 619 91.5 656 Q107 693 135.5 717.5 Q164 742 204 754.5 Q244 767 293 767 Q400 767 454.5 713 Q509 659 509 570 Q509 506 482.5 465.5 Q456 425 408 405 Q475 381 506.5 328.5 Q538 276 538 204 Q538 149 520.5 108.5 Q503 68 470.5 41.5 Q438 15 393 2.5 Q348 -10 293 -10 Q229 -10 182.5 5.5 Q136 21 106 49 Q76 77 61.5 117 Q47 157 47 205 Z M184 214 Q184 160 210 127.5 Q236 95 293 95 Q342 95 371.5 124 Q401 153 401 216 Q401 276 375.5 311.5 Q350 347 293 347 Q244 347 214 315 Q184 283 184 214 Z M293 461 Q338 461 364 485 Q390 509 390 560 Q390 608 365.5 635.5 Q341 663 293 663 Q248 663 221.5 637 Q195 611 195 560 Q195 515 218.5 488 Q242 461 293 461 Z " />
<glyph glyph-name="nine" unicode="9" horiz-adv-x="559" d="M40 510 Q40 568 57.5 615.5 Q75 663 107 696.5 Q139 730 184 748.5 Q229 767 284 767 Q538 767 538 384 Q538 296 521.5 223 Q505 150 472.5 98.5 Q440 47 391.5 18.5 Q343 -10 278 -10 Q214 -10 157 25 Q100 60 65 116 L160 178 Q183 138 215.5 113.5 Q248 89 278 89 Q310 89 333.5 108.5 Q357 128 373 164 Q389 200 397 250 Q405 300 405 361 Q382 313 344.5 283.5 Q307 254 269 254 Q218 254 175.5 272.5 Q133 291 103 324.5 Q73 358 56.5 405 Q40 452 40 510 Z M177 510 Q177 441 208 400 Q239 359 293 359 Q339 359 367 400 Q395 441 395 508 Q370 662 284 662 Q236 662 206.5 620.5 Q177 579 177 510 Z " />
<glyph glyph-name="A" unicode="A" horiz-adv-x="679" d="M272 757 L411 757 L679 0 L543 0 L480 181 L199 181 L136 0 L0 0 L272 757 Z M445 280 L340 581 L234 280 L445 280 Z " />
<glyph glyph-name="B" unicode="B" horiz-adv-x="655" d="M75 757 L335 757 Q385 757 432 747.5 Q479 738 515 715 Q551 692 572.5 652.5 Q594 613 594 553 Q594 502 565.5 462 Q537 422 492 401 Q531 391 557 373 Q583 355 599 331.5 Q615 308 622 281 Q629 254 630 225 Q630 188 620 148.5 Q610 109 583.5 76 Q557 43 510.5 21.5 Q464 0 391 0 L75 0 L75 757 Z M210 337 L210 104 L353 105 Q408 105 437.5 119.5 Q467 134 480.5 153.5 Q494 173 496 193.5 Q498 214 498 225 Q498 237 492.5 256 Q487 275 471 293 Q455 311 425.5 324 Q396 337 347 337 L210 337 Z M210 653 L210 438 L353 438 Q394 438 415.5 451 Q437 464 446.5 482.5 Q456 501 457.5 520.5 Q459 540 459 553 Q459 561 457.5 577.5 Q456 594 445.5 610.5 Q435 627 411 640 Q387 653 341 653 L210 653 Z " />
<glyph glyph-name="C" unicode="C" horiz-adv-x="679" d="M382 769 Q520 769 594 694.5 Q668 620 668 480 L546 480 Q546 570 503 617.5 Q460 665 382 665 Q334 665 296.5 643.5 Q259 622 233.5 583.5 Q208 545 194.5 493 Q181 441 181 379 Q181 318 194.5 266 Q208 214 234 176 Q260 138 298 116.5 Q336 95 385 95 Q463 95 504.5 138 Q546 181 546 260 L669 260 Q669 129 596 59.5 Q523 -10 385 -10 Q303 -10 239.5 19.5 Q176 49 132.5 101 Q89 153 66 224 Q43 295 43 379 Q43 463 65.5 534.5 Q88 606 131.5 658 Q175 710 238 739.5 Q301 769 382 769 Z " />
<glyph glyph-name="D" unicode="D" horiz-adv-x="745" d="M77 757 L323 757 Q700 757 700 379 Q700 293 682 223 Q664 153 623 103.5 Q582 54 516 27 Q450 0 353 0 L77 0 L77 757 Z M205 657 L205 100 Q237 100 274.5 99.5 Q312 99 344 99 Q456 99 509.5 167 Q563 235 563 379 Q563 658 328 658 Q300 658 266.5 657.5 Q233 657 205 657 Z " />
<glyph glyph-name="E" unicode="E" horiz-adv-x="594" d="M77 0 L77 757 L539 757 L539 653 L205 653 L205 441 L519 441 L519 341 L205 341 L205 105 L554 105 L554 0 L77 0 Z " />
<glyph glyph-name="F" unicode="F" horiz-adv-x="559" d="M77 0 L77 757 L539 757 L539 653 L205 653 L205 441 L509 441 L509 341 L205 341 L205 0 L77 0 Z " />
<glyph glyph-name="G" unicode="G" horiz-adv-x="726" d="M42 379 Q42 566 132.5 666.5 Q223 767 392 767 Q536 767 613 691 Q690 615 690 472 L567 471 Q567 564 522 613.5 Q477 663 392 663 Q289 663 234 590 Q179 517 179 379 Q179 241 234 168 Q289 95 392 95 Q449 95 491.5 110 Q534 125 568 154 L568 324 L362 324 L362 429 L691 429 L691 91 Q633 43 559.5 16.5 Q486 -10 392 -10 Q223 -10 132.5 90.5 Q42 191 42 379 Z " />
<glyph glyph-name="H" unicode="H" horiz-adv-x="726" d="M205 757 L205 452 L523 452 L523 757 L651 757 L651 0 L523 0 L523 347 L205 347 L205 0 L77 0 L77 757 L205 757 Z " />
<glyph glyph-name="I" unicode="I" horiz-adv-x="281" d="M78 0 L78 757 L206 757 L206 0 L78 0 Z " />
<glyph glyph-name="J" unicode="J" horiz-adv-x="572" d="M44 288 L171 288 L172 235 Q172 169 196 139 Q220 109 271 109 Q319 109 343.5 136.5 Q368 164 368 210 L368 757 L497 757 L497 210 Q497 111 440 50.5 Q383 -10 271 -10 Q153 -10 98.5 40 Q44 90 44 199 L44 288 Z " />
<glyph glyph-name="K" unicode="K" horiz-adv-x="636" d="M205 757 L205 439 L460 757 L613 757 L389 489 L636 0 L487 0 L300 383 L206 271 L205 271 L205 0 L77 0 L77 757 L205 757 Z " />
<glyph glyph-name="L" unicode="L" horiz-adv-x="525" d="M206 757 L206 105 L505 105 L505 0 L78 0 L78 757 L206 757 Z " />
<glyph glyph-name="M" unicode="M" horiz-adv-x="858" d="M78 0 L78 757 L273 757 L430 204 L582 757 L783 757 L783 0 L659 0 L659 608 L488 0 L374 0 L202 595 L202 0 L78 0 Z " />
<glyph glyph-name="N" unicode="N" horiz-adv-x="693" d="M217 757 L490 189 L490 757 L618 757 L618 0 L442 0 L205 492 L205 0 L77 0 L77 757 L217 757 Z " />
<glyph glyph-name="O" unicode="O" horiz-adv-x="768" d="M385 767 Q462 767 524 739.5 Q586 712 630.5 661 Q675 610 699 538.5 Q723 467 723 379 Q723 286 700.5 214 Q678 142 634.5 92 Q591 42 528 16 Q465 -10 385 -10 Q305 -10 242 16 Q179 42 135.5 92 Q92 142 69.5 214 Q47 286 47 379 Q47 467 71 538.5 Q95 610 139.5 661 Q184 712 246.5 739.5 Q309 767 385 767 Z M184 379 Q184 242 236 168.5 Q288 95 385 95 Q482 95 534 168.5 Q586 242 586 379 Q586 443 571.5 495.5 Q557 548 531 585 Q505 622 467.5 642.5 Q430 663 385 663 Q340 663 302.5 642.5 Q265 622 239 585 Q213 548 198.5 495.5 Q184 443 184 379 Z " />
<glyph glyph-name="P" unicode="P" horiz-adv-x="603" d="M77 757 L293 757 Q600 757 600 535 Q600 327 293 327 L205 327 L205 0 L77 0 L77 757 Z M205 658 L205 427 L298 427 Q472 427 472 535 Q472 658 288 658 L205 658 Z " />
<glyph glyph-name="Q" unicode="Q" horiz-adv-x="762" d="M380 767 Q456 767 518 739 Q580 711 624.5 660 Q669 609 693 537.5 Q717 466 717 379 Q717 207 643 108.5 Q569 10 431 -7 Q429 -41 427.5 -73 Q426 -105 424 -130 Q423 -145 422.5 -159 Q422 -173 421 -186 L314 -184 Q315 -171 316 -157 Q317 -143 318 -129 Q320 -104 322.5 -72.5 Q325 -41 327 -7 Q190 10 116.5 109 Q43 208 43 379 Q43 466 67.5 537.5 Q92 609 136 660 Q180 711 242 739 Q304 767 380 767 Z M335 100 Q337 132 339 153.5 Q341 175 341 179 L442 177 Q442 174 441 153.5 Q440 133 438 103 Q507 124 543.5 194.5 Q580 265 580 379 Q580 443 565.5 495 Q551 547 525 584.5 Q499 622 462 642.5 Q425 663 380 663 Q335 663 298 642.5 Q261 622 235 584.5 Q209 547 194.5 495 Q180 443 180 379 Q180 261 220 189 Q260 117 335 100 Z " />
<glyph glyph-name="R" unicode="R" horiz-adv-x="633" d="M295 757 Q608 757 608 540 Q608 473 580 430.5 Q552 388 508 364 Q464 340 408.5 331 Q353 322 297 322 L619 0 L446 0 L205 243 L205 0 L77 0 L77 757 L295 757 Z M205 422 L244 422 Q252 421 259.5 421 Q267 421 273 421 L299 421 Q480 421 480 540 Q480 658 290 658 L205 658 L205 422 Z " />
<glyph glyph-name="S" unicode="S" horiz-adv-x="702" d="M87 553 Q87 606 110.5 647 Q134 688 173 716 Q212 744 262 758 Q312 772 364 772 Q417 772 468 757 Q519 742 558.5 711 Q598 680 622.5 633 Q647 586 647 522 L526 524 Q526 559 511 583.5 Q496 608 472 624 Q448 640 418 647.5 Q388 655 358 655 Q331 655 306 649.5 Q281 644 261.5 632.5 Q242 621 230.5 604.5 Q219 588 219 567 Q219 526 252 504.5 Q285 483 334.5 468 Q384 453 441.5 438.5 Q499 424 548.5 398 Q598 372 631 328.5 Q664 285 664 211 Q664 157 639.5 115 Q615 73 575 43.5 Q535 14 484 -1 Q433 -16 379 -16 Q325 -16 274 0 Q223 16 182.5 50 Q142 84 117.5 136.5 Q93 189 93 261 L226 261 Q226 218 240 187 Q254 156 277 136.5 Q300 117 328.5 108 Q357 99 387 99 Q415 99 441.5 106.5 Q468 114 489 128.5 Q510 143 522.5 164 Q535 185 535 211 Q535 242 516 261.5 Q497 281 465.5 295 Q434 309 393.5 319 Q353 329 311 340.5 Q269 352 229 367.5 Q189 383 157.5 407 Q126 431 106.5 466.5 Q87 502 87 553 Z " />
<glyph glyph-name="T" unicode="T" horiz-adv-x="549" d="M549 757 L549 653 L339 653 L339 0 L210 0 L210 653 L0 653 L0 757 L549 757 Z " />
<glyph glyph-name="U" unicode="U" horiz-adv-x="725" d="M198 757 L198 315 Q198 104 363 104 Q527 104 527 315 L527 757 L655 757 L655 292 Q655 -10 363 -10 Q70 -10 70 292 L70 757 L198 757 Z " />
<glyph glyph-name="V" unicode="V" horiz-adv-x="586" d="M2 757 L139 757 L295 204 L449 757 L586 757 L358 0 L235 0 L2 757 Z " />
<glyph glyph-name="W" unicode="W" horiz-adv-x="776" d="M2 757 L139 757 L223 286 L327 757 L451 757 L558 286 L639 757 L776 757 L623 0 L499 0 L388 488 L274 0 L151 0 L2 757 Z " />
<glyph glyph-name="X" unicode="X" horiz-adv-x="538" d="M-33 0 L193 392 L-2 757 L129 757 L261 509 L404 757 L546 757 L329 382 L533 0 L403 0 L262 264 L109 0 L-33 0 Z " />
<glyph glyph-name="Y" unicode="Y" horiz-adv-x="581" d="M7 757 L134 757 L294 449 L454 757 L581 757 L358 335 L358 0 L230 0 L230 335 L7 757 Z " />
<glyph glyph-name="Z" unicode="Z" horiz-adv-x="609" d="M419 653 L50 653 L50 757 L574 757 L574 653 L189 105 L574 105 L574 0 L35 0 L35 105 L419 653 Z " />
<glyph glyph-name="a" unicode="a" horiz-adv-x="584" d="M254 537 Q332 537 379 465 L379 527 L494 527 L494 0 L379 0 L379 63 Q356 28 324 9 Q292 -10 254 -10 Q206 -10 166.5 10 Q127 30 99 66 Q71 102 55.5 152.5 Q40 203 40 264 Q40 326 55.5 376 Q71 426 99 462 Q127 498 166.5 517.5 Q206 537 254 537 Z M292 85 Q312 85 328 98 Q344 111 355 134.5 Q366 158 372.5 191 Q379 224 379 264 Q379 304 372.5 337 Q366 370 355 393.5 Q344 417 328 430 Q312 443 292 443 Q264 443 240.5 430 Q217 417 200 393.5 Q183 370 174 337 Q165 304 165 264 Q165 224 174 191 Q183 158 200 134.5 Q217 111 240.5 98 Q264 85 292 85 Z " />
<glyph glyph-name="b" unicode="b" horiz-adv-x="540" d="M171 775 L173 471 Q216 537 294 537 Q343 537 382.5 517.5 Q422 498 450.5 462 Q479 426 494.5 376 Q510 326 510 264 Q510 203 493.5 152.5 Q477 102 447 66 Q417 30 375 10.5 Q333 -9 282 -9 Q215 -9 176 48 L176 0 L61 0 L56 775 L171 775 Z M176 264 Q176 171 209 128.5 Q242 86 296 86 Q344 86 372 134.5 Q400 183 400 264 Q400 304 392.5 337 Q385 370 370.5 393 Q356 416 336.5 429 Q317 442 293 442 Q240 442 208 399.5 Q176 357 176 264 Z " />
<glyph glyph-name="c" unicode="c" horiz-adv-x="502" d="M259 542 Q300 542 338.5 528 Q377 514 406.5 487.5 Q436 461 454 421.5 Q472 382 472 331 L360 332 Q360 359 351.5 381 Q343 403 329 418 Q315 433 297 441.5 Q279 450 260 450 Q239 450 219 439.5 Q199 429 183 406.5 Q167 384 157 349 Q147 314 147 264 Q147 215 156.5 180.5 Q166 146 181.5 124 Q197 102 216.5 92.5 Q236 83 256 83 Q275 83 293.5 91 Q312 99 326 113.5 Q340 128 349 147.5 Q358 167 358 190 L473 191 Q473 143 454 105.5 Q435 68 404 41.5 Q373 15 333.5 1 Q294 -13 252 -13 Q209 -13 168 3 Q127 19 94.5 52.5 Q62 86 42 138.5 Q22 191 22 264 Q22 336 42.5 388 Q63 440 97 474.5 Q131 509 173.5 525.5 Q216 542 259 542 Z " />
<glyph glyph-name="d" unicode="d" horiz-adv-x="545" d="M253 539 Q340 539 390 461 L390 775 L505 775 L505 0 L390 0 L390 68 Q365 31 330.5 11 Q296 -9 253 -9 Q201 -9 158 10.5 Q115 30 84.5 66 Q54 102 37.5 152.5 Q21 203 21 264 Q21 326 37.5 376.5 Q54 427 84.5 463 Q115 499 158 519 Q201 539 253 539 Z M255 86 Q285 86 310 99 Q335 112 353 135 Q371 158 380.5 191 Q390 224 390 264 Q390 346 353.5 395.5 Q317 445 254 445 Q199 445 166 395.5 Q133 346 133 264 Q133 183 166.5 134.5 Q200 86 255 86 Z " />
<glyph glyph-name="e" unicode="e" horiz-adv-x="514" d="M26 264 Q26 335 43 386 Q60 437 90.5 471 Q121 505 164.5 521 Q208 537 261 537 Q324 537 368.5 516.5 Q413 496 441 459 Q469 422 482 370 Q495 318 495 254 L380 254 L151 255 Q153 166 187 125.5 Q221 85 275 85 Q320 85 346.5 112.5 Q373 140 373 186 L488 186 Q488 142 472.5 105.5 Q457 69 429.5 43.5 Q402 18 362.5 4 Q323 -10 275 -10 Q219 -10 173 6 Q127 22 94.5 56 Q62 90 44 141.5 Q26 193 26 264 Z M157 335 L373 334 Q363 388 336 417.5 Q309 447 261 447 Q222 447 195 420 Q168 393 157 335 Z " />
<glyph glyph-name="f" unicode="f" horiz-adv-x="306" d="M20 437 L20 527 L90 527 L90 625 Q90 706 121 740.5 Q152 775 225 775 L306 775 L306 680 L256 681 Q228 681 216.5 668 Q205 655 205 625 L205 527 L306 527 L306 437 L205 437 L205 0 L90 0 L90 437 L20 437 Z " />
<glyph glyph-name="g" unicode="g" horiz-adv-x="561" d="M43 264 Q43 341 57 394.5 Q71 448 97 482 Q123 516 159.5 531.5 Q196 547 241 547 Q287 547 323.5 525.5 Q360 504 386 464 L386 527 L501 527 L501 39 Q501 -23 489 -74 Q477 -125 451.5 -161.5 Q426 -198 385 -218 Q344 -238 286 -238 Q242 -238 201.5 -229 Q161 -220 130.5 -197.5 Q100 -175 81.5 -135.5 Q63 -96 63 -34 L186 -34 Q188 -58 191.5 -78 Q195 -98 204.5 -112.5 Q214 -127 231 -135 Q248 -143 276 -143 Q336 -143 361 -106.5 Q386 -70 386 -10 L386 39 Q365 5 334.5 -13 Q304 -31 266 -31 Q216 -31 175 -14.5 Q134 2 104.5 37 Q75 72 59 128.5 Q43 185 43 264 Z M155 264 Q155 157 189.5 111 Q224 65 281 65 Q305 65 324 79.5 Q343 94 357 120 Q371 146 378.5 182.5 Q386 219 386 264 Q386 349 356 400.5 Q326 452 277 452 Q222 452 188.5 408.5 Q155 365 155 264 Z " />
<glyph glyph-name="h" unicode="h" horiz-adv-x="509" d="M60 775 L175 775 L175 462 Q194 496 221 514.5 Q248 533 282 533 Q357 533 403 480.5 Q449 428 449 322 L449 0 L334 0 L334 322 Q334 376 314.5 402.5 Q295 429 263 429 Q223 429 199 390 Q175 351 175 285 L175 0 L60 0 L60 775 Z " />
<glyph glyph-name="i" unicode="i" horiz-adv-x="295" d="M100 527 L215 527 L215 0 L100 0 L100 527 Z M95 732 L220 732 L220 607 L95 607 L95 732 Z " />
<glyph glyph-name="j" unicode="j" horiz-adv-x="215" d="M-38 -234 L-38 -139 L-14 -139 Q1 -139 10.5 -138 Q20 -137 25.5 -130 Q31 -123 33.5 -108 Q36 -93 36 -65 L40 527 L155 527 L151 -65 Q150 -127 144 -161 Q138 -195 123 -211.5 Q108 -228 82.5 -231 Q57 -234 17 -234 L-38 -234 Z M160 732 L160 607 L35 607 L35 732 L160 732 Z " />
<glyph glyph-name="k" unicode="k" horiz-adv-x="473" d="M175 775 L175 342 L324 527 L456 527 L311 358 L473 0 L337 0 L228 262 L175 199 L175 0 L60 0 L60 775 L175 775 Z " />
<glyph glyph-name="l" unicode="l" horiz-adv-x="235" d="M60 0 L60 775 L175 775 L175 0 L60 0 Z " />
<glyph glyph-name="m" unicode="m" horiz-adv-x="768" d="M55 0 L55 527 L170 527 L170 466 Q208 538 275 538 Q326 538 363 511.5 Q400 485 418 431 Q437 482 469.5 510 Q502 538 545 538 Q621 538 667 485.5 Q713 433 713 330 L713 0 L598 0 L598 330 Q598 382 581 408.5 Q564 435 536 435 Q488 435 460 394 Q432 353 432 284 L432 0 L317 0 L317 330 Q317 382 300.5 408.5 Q284 435 256 435 Q218 435 194.5 394 Q171 353 171 284 L170 284 L170 0 L55 0 Z " />
<glyph glyph-name="n" unicode="n" horiz-adv-x="499" d="M55 527 L170 527 L170 468 Q190 502 218.5 520.5 Q247 539 282 539 Q355 539 399.5 485 Q444 431 444 322 L444 0 L329 0 L329 322 Q329 379 310 407.5 Q291 436 260 436 Q218 436 194 399 Q170 362 170 299 L170 0 L55 0 L55 527 Z " />
<glyph glyph-name="o" unicode="o" horiz-adv-x="547" d="M271 541 Q332 541 376.5 521 Q421 501 450 464.5 Q479 428 493 377 Q507 326 507 264 Q507 193 490 141 Q473 89 442 55 Q411 21 367.5 4.5 Q324 -12 271 -12 Q210 -12 165 8 Q120 28 91 64 Q62 100 48 151 Q34 202 34 264 Q34 336 51 388 Q68 440 99 474 Q130 508 174 524.5 Q218 541 271 541 Z M159 264 Q159 176 186 124.5 Q213 73 271 73 Q321 73 351.5 119 Q382 165 382 264 Q382 307 375.5 342.5 Q369 378 355.5 403 Q342 428 321 442 Q300 456 271 456 Q221 456 190 409.5 Q159 363 159 264 Z " />
<glyph glyph-name="p" unicode="p" horiz-adv-x="548" d="M60 527 L175 527 L175 470 Q199 505 231.5 521 Q264 537 306 537 Q351 537 388.5 517.5 Q426 498 452.5 462 Q479 426 493.5 376 Q508 326 508 264 Q508 203 493.5 152.5 Q479 102 452.5 66 Q426 30 388.5 10.5 Q351 -9 306 -9 Q264 -9 231.5 7 Q199 23 175 58 L175 -197 L60 -197 L60 527 Z M175 264 Q175 170 205 127 Q235 84 284 84 Q309 84 329.5 97 Q350 110 365 133.5 Q380 157 388 190.5 Q396 224 396 264 Q396 304 388.5 337 Q381 370 367 393.5 Q353 417 333.5 430 Q314 443 290 443 Q238 443 206.5 400 Q175 357 175 264 Z " />
<glyph glyph-name="q" unicode="q" horiz-adv-x="557" d="M43 264 Q43 325 58 375 Q73 425 100 461 Q127 497 165.5 516.5 Q204 536 250 536 Q292 536 325 516.5 Q358 497 382 461 L382 527 L497 527 L497 -207 L382 -207 L382 72 Q358 37 325 18 Q292 -1 250 -1 Q204 -1 165.5 18 Q127 37 100 72 Q73 107 58 155.5 Q43 204 43 264 Z M155 264 Q155 186 184.5 139.5 Q214 93 262 93 Q316 93 349 139.5 Q382 186 382 264 Q382 345 350 393.5 Q318 442 264 442 Q215 442 185 393.5 Q155 345 155 264 Z " />
<glyph glyph-name="r" unicode="r" horiz-adv-x="333" d="M60 0 L60 527 L175 527 L175 449 Q196 491 229.5 514 Q263 537 314 537 Q319 537 320 538 L323 538 L323 413 L303 413 Q234 413 204.5 365.5 Q175 318 175 237 L175 0 L60 0 Z " />
<glyph glyph-name="s" unicode="s" horiz-adv-x="476" d="M124 188 Q124 159 133.5 139 Q143 119 158 106 Q173 93 192 87.5 Q211 82 230 82 Q263 82 289.5 97 Q316 112 316 135 Q316 171 295.5 189 Q275 207 244.5 217.5 Q214 228 178 235.5 Q142 243 111.5 259 Q81 275 60.5 303.5 Q40 332 40 384 Q40 420 57 449 Q74 478 102 498.5 Q130 519 165 529.5 Q200 540 237 540 Q273 540 307.5 529 Q342 518 368.5 495 Q395 472 411.5 436 Q428 400 428 350 L325 350 Q325 379 317.5 398.5 Q310 418 297 430.5 Q284 443 268 448.5 Q252 454 235 454 Q219 454 203.5 449.5 Q188 445 176 437 Q164 429 156.5 418 Q149 407 149 394 Q149 367 170 353.5 Q191 340 222 331.5 Q253 323 290 314 Q327 305 358 286.5 Q389 268 410 235 Q431 202 431 145 Q431 108 413.5 79.5 Q396 51 367 31 Q338 11 301 0.5 Q264 -10 225 -10 Q185 -10 147 1.5 Q109 13 79 37 Q49 61 30.5 98.5 Q12 136 12 188 L124 188 Z " />
<glyph glyph-name="t" unicode="t" horiz-adv-x="299" d="M0 437 L0 527 L68 527 L68 664 L183 664 L183 527 L279 527 L279 437 L183 437 L183 145 Q183 116 189 105 Q195 94 224 94 L279 94 L279 0 L173 0 Q135 0 114 7.5 Q93 15 82.5 32 Q72 49 70 77 Q68 105 68 145 L68 437 L0 437 Z " />
<glyph glyph-name="u" unicode="u" horiz-adv-x="504" d="M55 200 L55 527 L170 527 L170 200 Q170 146 184 119.5 Q198 93 237 93 Q279 93 304 133.5 Q329 174 329 241 L329 527 L444 527 L444 0 L329 0 L329 78 Q310 36 280.5 12.5 Q251 -11 213 -11 Q167 -11 136.5 2.5 Q106 16 88 42.5 Q70 69 62.5 108.5 Q55 148 55 200 Z " />
<glyph glyph-name="v" unicode="v" horiz-adv-x="444" d="M0 527 L130 527 L220 153 L314 527 L444 527 L282 0 L157 0 L0 527 Z " />
<glyph glyph-name="w" unicode="w" horiz-adv-x="728" d="M24 527 L146 527 L224 147 L314 527 L414 527 L504 147 L582 527 L704 527 L564 0 L449 0 L364 332 L279 0 L164 0 L24 527 Z " />
<glyph glyph-name="x" unicode="x" horiz-adv-x="458" d="M-75 0 L135 303 L-7 527 L129 527 L206 405 L291 527 L431 527 L273 300 L463 0 L327 0 L202 197 L65 0 L-75 0 Z " />
<glyph glyph-name="y" unicode="y" horiz-adv-x="443" d="M130 527 L216 156 L313 527 L443 527 L253 -88 Q243 -124 230 -147.5 Q217 -171 197.5 -185 Q178 -199 150.5 -204.5 Q123 -210 85 -210 L35 -210 L35 -110 L85 -110 Q119 -110 135.5 -96 Q152 -82 163 -44 L169 -23 L0 527 L130 527 Z " />
<glyph glyph-name="z" unicode="z" horiz-adv-x="414" d="M20 70 L243 437 L35 437 L35 527 L388 527 L388 457 L159 90 L404 90 L404 0 L20 0 L20 70 Z " />
</font>
</svg>
