<?xml version="1.0" encoding="UTF-8"?>
<svg xmlns="http://www.w3.org/2000/svg" xmlns:xlink="http://www.w3.org/1999/xlink" version="1.2" >
<font id="Hacim Regular-Demo">
<font-face  font-family="Hacim" units-per-em="1024" ascent="1007" descent="-312" font-style="normal" font-weight="400" font-stretch="normal" cap-height="1007" x-height="504" underline-position="0" underline-thickness="0" />
<missing-glyph  horiz-adv-x="512" d="" />
<glyph glyph-name="space" unicode="&#x20;" horiz-adv-x="217" d="" />
<glyph glyph-name="zero" unicode="0" horiz-adv-x="654" d="M329 767 Q395 767 447 740.5 Q499 714 535 664.5 Q571 615 590 543 Q609 471 609 379 Q609 -10 329 -10 Q48 -10 48 379 Q48 471 67 543 Q86 615 122 664.5 Q158 714 210.5 740.5 Q263 767 329 767 Z M157 379 Q157 76 329 76 Q500 76 500 379 Q500 524 455 603 Q410 682 329 682 Q248 682 202.5 603 Q157 524 157 379 Z " />
<glyph glyph-name="one" unicode="1" horiz-adv-x="358" d="M18 722 L186 757 L268 757 L268 0 L163 0 L163 653 L18 624 L18 722 Z " />
<glyph glyph-name="two" unicode="2" horiz-adv-x="550" d="M41 0 Q41 63 50.5 109 Q60 155 80.5 191 Q101 227 133.5 256 Q166 285 212 315 Q299 373 352 431.5 Q405 490 405 541 Q405 614 371.5 648 Q338 682 281 682 Q223 682 187.5 643 Q152 604 152 540 Q152 528 152 520.5 Q152 513 151 514 L51 514 L51 540 Q51 591 67.5 633 Q84 675 114 704.5 Q144 734 186.5 750.5 Q229 767 281 767 Q332 767 374.5 753 Q417 739 447 710 Q477 681 493.5 637 Q510 593 510 533 Q510 466 460.5 401.5 Q411 337 330 283 Q296 261 269 240 Q242 219 222 197.5 Q202 176 188 152.5 Q174 129 166 101 L525 101 L525 0 L41 0 Z " />
<glyph glyph-name="three" unicode="3" horiz-adv-x="553" d="M42 247 L151 247 Q151 169 185 126 Q219 83 280 83 Q340 83 372.5 117.5 Q405 152 405 215 Q405 287 366 325.5 Q327 364 255 364 L195 364 L195 445 L275 445 Q330 445 360.5 475 Q391 505 391 562 Q391 619 362 650.5 Q333 682 279 682 Q231 682 205.5 646.5 Q180 611 180 545 L75 545 Q75 651 128.5 709 Q182 767 282 767 Q381 767 434.5 716 Q488 665 488 571 Q488 514 458.5 473 Q429 432 375 412 Q444 386 481 334.5 Q518 283 518 211 Q518 105 456 47.5 Q394 -10 280 -10 Q166 -10 104 57 Q42 124 42 247 Z " />
<glyph glyph-name="four" unicode="4" horiz-adv-x="549" d="M15 236 L15 318 L362 757 L444 757 L444 330 L539 330 L539 237 L444 237 L444 0 L339 0 L339 237 L103 237 L15 236 Z M121 330 L339 330 L339 558 L345 613 L121 330 Z " />
<glyph glyph-name="five" unicode="5" horiz-adv-x="549" d="M44 247 L149 247 Q149 172 185.5 126 Q222 80 282 80 Q340 80 375.5 122.5 Q411 165 411 237 Q411 313 378 359 Q345 405 291 405 Q269 405 237.5 384.5 Q206 364 175 330 L78 352 L95 757 L492 757 Q490 737 489 719 Q488 701 487 687 Q486 679 486 672 Q486 665 485 658 L194 658 L181 432 Q210 458 244.5 472.5 Q279 487 310 487 Q357 487 395.5 469 Q434 451 461.5 418 Q489 385 504 339 Q519 293 519 237 Q519 182 502 136 Q485 90 454 58 Q423 26 379 8 Q335 -10 282 -10 Q228 -10 184.5 8.5 Q141 27 109.5 61 Q78 95 61 142 Q44 189 44 247 Z " />
<glyph glyph-name="six" unicode="6" horiz-adv-x="560" d="M52 374 Q52 463 68.5 535 Q85 607 117 659 Q149 711 197 739 Q245 767 309 767 Q372 767 429 731.5 Q486 696 520 638 L443 587 Q417 632 380.5 659 Q344 686 309 686 Q275 686 250.5 670 Q226 654 209.5 627.5 Q193 601 183.5 567.5 Q174 534 169 500 Q164 466 162.5 434 Q161 402 161 378 Q187 432 229.5 465 Q272 498 320 498 Q370 498 411.5 480 Q453 462 482.5 429 Q512 396 528 350 Q544 304 544 247 Q544 189 527 142 Q510 95 478.5 61 Q447 27 402.5 8.5 Q358 -10 304 -10 Q52 -10 52 374 Z M169 262 Q196 76 304 76 Q361 76 396 122.5 Q431 169 431 247 Q431 322 395.5 367.5 Q360 413 300 413 Q261 413 225 372 Q189 331 169 262 Z " />
<glyph glyph-name="seven" unicode="7" horiz-adv-x="444" d="M20 757 L444 757 L444 656 Q387 556 346.5 470.5 Q306 385 280.5 306 Q255 227 243 152.5 Q231 78 231 0 L115 0 Q115 63 128.5 131 Q142 199 171 278 Q200 357 246 450 Q292 543 358 656 L20 656 L20 757 Z " />
<glyph glyph-name="eight" unicode="8" horiz-adv-x="583" d="M53 205 Q53 286 89.5 335.5 Q126 385 190 405 Q133 425 107.5 467.5 Q82 510 82 570 Q82 668 141 717.5 Q200 767 296 767 Q402 767 455.5 713.5 Q509 660 509 570 Q509 504 480.5 463.5 Q452 423 401 405 Q473 382 505.5 330 Q538 278 538 205 Q538 150 520.5 109 Q503 68 471.5 42 Q440 16 395 3 Q350 -10 296 -10 Q233 -10 187 5.5 Q141 21 111.5 49 Q82 77 67.5 117 Q53 157 53 205 Z M165 213 Q165 150 196 113 Q227 76 296 76 Q356 76 391 109 Q426 142 426 214 Q426 280 395.5 318.5 Q365 357 296 357 Q236 357 200.5 322.5 Q165 288 165 213 Z M296 450 Q350 450 381 476.5 Q412 503 412 561 Q412 616 383 649 Q354 682 296 682 Q242 682 210.5 651.5 Q179 621 179 561 Q179 510 207 480 Q235 450 296 450 Z " />
<glyph glyph-name="nine" unicode="9" horiz-adv-x="560" d="M40 510 Q40 568 57.5 615.5 Q75 663 106.5 696.5 Q138 730 182 748.5 Q226 767 280 767 Q532 767 532 383 Q532 295 516 222.5 Q500 150 467.5 98 Q435 46 387 18 Q339 -10 275 -10 Q212 -10 155 25.5 Q98 61 64 119 L141 170 Q167 125 203.5 98 Q240 71 275 71 Q309 71 333.5 87 Q358 103 374.5 129.5 Q391 156 400.5 189.5 Q410 223 415 257 Q420 291 421.5 323 Q423 355 423 379 Q397 325 354.5 292 Q312 259 264 259 Q214 259 172.5 277 Q131 295 101.5 328 Q72 361 56 407 Q40 453 40 510 Z M153 510 Q153 435 188.5 389.5 Q224 344 284 344 Q323 344 359 385 Q395 426 415 495 Q388 681 280 681 Q223 681 188 634.5 Q153 588 153 510 Z " />
<glyph glyph-name="A" unicode="A" horiz-adv-x="679" d="M287 757 L400 757 L679 0 L568 0 L495 200 L190 200 L117 0 L6 0 L287 757 Z M466 280 L343 618 L219 280 L466 280 Z " />
<glyph glyph-name="B" unicode="B" horiz-adv-x="656" d="M82 0 L82 757 L336 757 Q401 757 454 743 Q455 742 456 742 Q595 702 595 553 Q595 502 564.5 461 Q534 420 486 400 Q527 391 554 373.5 Q581 356 598 332.5 Q615 309 622.5 281.5 Q630 254 631 225 Q631 188 621 148.5 Q611 109 584.5 76 Q558 43 511.5 21.5 Q465 0 392 0 L82 0 Z M191 347 L191 86 L361 86 Q420 86 452.5 102 Q485 118 500.5 140 Q516 162 519.5 185.5 Q523 209 523 225 Q523 239 516.5 259.5 Q510 280 492 299.5 Q474 319 441.5 333 Q409 347 357 347 L191 347 Z M191 430 L362 430 Q406 430 430.5 444 Q455 458 467 477.5 Q479 497 481.5 518 Q484 539 484 553 Q484 565 481 585 Q478 605 464 624.5 Q450 644 421 658 Q392 672 341 672 L191 671 L191 430 Z " />
<glyph glyph-name="C" unicode="C" horiz-adv-x="680" d="M385 769 Q523 769 596.5 694.5 Q670 620 670 480 L570 480 Q570 579 522.5 631.5 Q475 684 385 684 Q332 684 290.5 661 Q249 638 220.5 597 Q192 556 177 500.5 Q162 445 162 379 Q162 314 177 258.5 Q192 203 221 162.5 Q250 122 292 99 Q334 76 388 76 Q476 76 523 124 Q570 172 570 260 L670 260 Q670 129 597.5 59.5 Q525 -10 388 -10 Q307 -10 244.5 19.5 Q182 49 138.5 101 Q95 153 72.5 224 Q50 295 50 379 Q50 463 72.5 534.5 Q95 606 137.5 658 Q180 710 242.5 739.5 Q305 769 385 769 Z " />
<glyph glyph-name="D" unicode="D" horiz-adv-x="745" d="M83 757 L323 757 Q700 757 700 379 Q700 293 682 223 Q664 153 623 103.5 Q582 54 516 27 Q450 0 353 0 L83 0 L83 757 Z M188 675 L188 82 Q223 82 267 81.5 Q311 81 346 81 Q470 81 528.5 153.5 Q587 226 587 379 Q587 676 327 676 Q295 676 257.5 675.5 Q220 675 188 675 Z " />
<glyph glyph-name="E" unicode="E" horiz-adv-x="577" d="M83 0 L83 757 L522 757 L522 672 L188 671 L188 432 L502 432 L502 350 L188 350 L188 86 L537 86 L537 0 L83 0 Z " />
<glyph glyph-name="F" unicode="F" horiz-adv-x="542" d="M83 0 L83 757 L522 757 L522 672 L188 671 L188 432 L492 432 L492 350 L188 350 L188 0 L83 0 Z " />
<glyph glyph-name="G" unicode="G" horiz-adv-x="726" d="M48 379 Q48 566 137.5 666.5 Q227 767 395 767 Q536 767 611 691 Q686 615 686 472 L586 471 Q586 573 537 627.5 Q488 682 395 682 Q283 682 222 604 Q161 526 161 379 Q161 232 222 154 Q283 76 395 76 Q455 76 503.5 94 Q552 112 591 145 L591 334 L362 334 L362 419 L691 419 L691 94 Q631 43 558.5 16.5 Q486 -10 395 -10 Q227 -10 137.5 90.5 Q48 191 48 379 Z " />
<glyph glyph-name="H" unicode="H" horiz-adv-x="703" d="M188 757 L188 442 L523 442 L523 757 L628 757 L628 0 L523 0 L523 357 L188 357 L188 0 L83 0 L83 757 L188 757 Z " />
<glyph glyph-name="I" unicode="I" horiz-adv-x="257" d="M77 0 L77 757 L182 757 L182 0 L77 0 Z " />
<glyph glyph-name="J" unicode="J" horiz-adv-x="549" d="M50 288 L154 288 L154 230 Q154 155 179.5 121 Q205 87 262 87 Q316 87 342.5 120 Q369 153 369 210 L369 757 L474 757 L474 210 Q474 111 420.5 50.5 Q367 -10 262 -10 Q151 -10 100.5 40.5 Q50 91 50 200 L50 288 Z " />
<glyph glyph-name="K" unicode="K" horiz-adv-x="612" d="M188 757 L188 412 L457 757 L582 757 L361 485 L612 0 L490 0 L290 397 L189 272 L188 272 L188 0 L83 0 L83 757 L188 757 Z " />
<glyph glyph-name="L" unicode="L" horiz-adv-x="501" d="M182 757 L182 86 L481 86 L481 0 L77 0 L77 757 L182 757 Z " />
<glyph glyph-name="M" unicode="M" horiz-adv-x="835" d="M243 757 L422 158 L596 757 L760 757 L760 0 L659 0 L659 642 L469 0 L375 0 L185 628 L185 0 L84 0 L84 757 L243 757 Z " />
<glyph glyph-name="N" unicode="N" horiz-adv-x="669" d="M83 0 L83 757 L197 757 L489 155 L489 757 L594 757 L594 0 L450 0 L188 540 L188 0 L83 0 Z " />
<glyph glyph-name="O" unicode="O" horiz-adv-x="768" d="M388 767 Q464 767 525.5 739.5 Q587 712 631 661 Q675 610 699 538.5 Q723 467 723 379 Q723 286 700.5 214 Q678 142 635 92 Q592 42 530 16 Q468 -10 388 -10 Q309 -10 246.5 16 Q184 42 141 92 Q98 142 75.5 214 Q53 286 53 379 Q53 467 77 538.5 Q101 610 145 661 Q189 712 250.5 739.5 Q312 767 388 767 Z M166 379 Q166 233 224 154.5 Q282 76 388 76 Q494 76 552 154.5 Q610 233 610 379 Q610 448 594 503.5 Q578 559 549 599 Q520 639 479 660.5 Q438 682 388 682 Q338 682 297 660.5 Q256 639 227 599 Q198 559 182 503.5 Q166 448 166 379 Z " />
<glyph glyph-name="P" unicode="P" horiz-adv-x="603" d="M83 0 L83 757 L316 757 Q600 757 600 535 Q600 331 316 331 L188 331 L188 0 L83 0 Z M188 413 L320 413 Q495 413 495 535 Q495 676 312 676 Q284 676 252 676 Q220 676 188 675 L188 413 Z " />
<glyph glyph-name="Q" unicode="Q" horiz-adv-x="762" d="M49 379 Q49 466 73 537.5 Q97 609 141 660 Q185 711 246.5 739 Q308 767 383 767 Q458 767 519.5 739 Q581 711 625 660 Q669 609 693 537.5 Q717 466 717 379 Q717 205 641.5 105.5 Q566 6 426 -8 L426 -182 L338 -184 Q338 -171 338 -157 Q338 -143 339 -128 Q339 -103 339.5 -71.5 Q340 -40 340 -8 Q200 6 124.5 105.5 Q49 205 49 379 Z M342 80 Q342 106 342.5 123.5 Q343 141 343 144 L426 145 L426 80 Q511 96 557.5 172.5 Q604 249 604 379 Q604 447 588 503 Q572 559 543 599 Q514 639 473.5 660.5 Q433 682 383 682 Q334 682 293 660.5 Q252 639 223 599 Q194 559 178 503 Q162 447 162 379 Q162 249 208 172 Q254 95 342 80 Z " />
<glyph glyph-name="R" unicode="R" horiz-adv-x="633" d="M83 757 L318 757 Q608 757 608 540 Q608 326 317 326 L285 326 L619 0 L478 0 L188 285 L188 0 L83 0 L83 757 Z M188 675 L188 408 L321 408 Q503 408 503 540 Q503 676 314 676 Q286 676 253.5 676 Q221 676 188 675 Z " />
<glyph glyph-name="S" unicode="S" horiz-adv-x="678" d="M353 772 Q403 772 450.5 757 Q498 742 535 711 Q572 680 595 633 Q618 586 618 522 L519 523 Q519 563 504 592 Q489 621 465 640 Q441 659 410.5 668 Q380 677 349 677 Q321 677 294 669.5 Q267 662 246.5 648 Q226 634 213.5 613 Q201 592 201 565 Q201 532 220 511 Q239 490 269.5 475.5 Q300 461 339.5 450 Q379 439 420.5 427.5 Q462 416 501.5 400.5 Q541 385 571.5 360.5 Q602 336 621 300 Q640 264 640 211 Q640 157 616.5 115 Q593 73 554.5 44 Q516 15 467 -0.5 Q418 -16 367 -16 Q316 -16 266.5 0 Q217 16 178.5 50 Q140 84 116.5 136.5 Q93 189 93 261 L203 261 Q203 213 218 178.5 Q233 144 257 121.5 Q281 99 312 88.5 Q343 78 375 78 Q405 78 434 87 Q463 96 485.5 113.5 Q508 131 521.5 155.5 Q535 180 535 211 Q535 244 516 265.5 Q497 287 466 301.5 Q435 316 395 326.5 Q355 337 314 348.5 Q273 360 233 374.5 Q193 389 162 412.5 Q131 436 112 470 Q93 504 93 554 Q93 607 115.5 647.5 Q138 688 174.5 716 Q211 744 257.5 758 Q304 772 353 772 Z " />
<glyph glyph-name="T" unicode="T" horiz-adv-x="549" d="M549 757 L549 672 L327 672 L327 0 L222 0 L222 672 L0 672 L0 757 L549 757 Z " />
<glyph glyph-name="U" unicode="U" horiz-adv-x="702" d="M181 757 L181 312 Q181 83 354 83 Q527 83 527 312 L527 757 L632 757 L632 293 Q632 -10 354 -10 Q76 -10 76 293 L76 757 L181 757 Z " />
<glyph glyph-name="V" unicode="V" horiz-adv-x="562" d="M8 757 L121 757 L287 167 L449 757 L562 757 L338 0 L236 0 L8 757 Z " />
<glyph glyph-name="W" unicode="W" horiz-adv-x="752" d="M8 757 L121 757 L216 234 L329 757 L431 757 L430 755 L547 233 L639 757 L752 757 L599 0 L498 0 L379 531 L258 0 L157 0 L8 757 Z " />
<glyph glyph-name="X" unicode="X" horiz-adv-x="527" d="M-26 0 L205 394 L11 757 L118 757 L261 489 L418 757 L533 757 L316 387 L522 0 L416 0 L260 292 L89 0 L-26 0 Z " />
<glyph glyph-name="Y" unicode="Y" horiz-adv-x="575" d="M13 757 L117 757 L294 427 L471 757 L575 757 L346 335 L346 0 L242 0 L242 335 L13 757 Z " />
<glyph glyph-name="Z" unicode="Z" horiz-adv-x="609" d="M35 0 L35 86 L449 672 L50 672 L50 757 L574 757 L574 672 L160 86 L574 86 L574 0 L35 0 Z " />
<glyph glyph-name="a" unicode="a" horiz-adv-x="584" d="M263 537 Q308 537 342.5 514 Q377 491 400 449 L400 527 L494 527 L494 0 L400 0 L400 79 Q377 37 342.5 13.5 Q308 -10 263 -10 Q214 -10 174 10 Q134 30 105.5 66 Q77 102 61.5 152.5 Q46 203 46 264 Q46 326 61.5 376 Q77 426 105.5 462 Q134 498 174 517.5 Q214 537 263 537 Z M295 67 Q319 67 338.5 81 Q358 95 371.5 121 Q385 147 392.5 183 Q400 219 400 264 Q400 354 371.5 407 Q343 460 295 460 Q262 460 235 446 Q208 432 188.5 406.5 Q169 381 158.5 344.5 Q148 308 148 264 Q148 220 158.5 183.5 Q169 147 188.5 121 Q208 95 235 81 Q262 67 295 67 Z " />
<glyph glyph-name="b" unicode="b" horiz-adv-x="534" d="M150 775 L152 456 Q175 498 208.5 517.5 Q242 537 285 537 Q334 537 374.5 517.5 Q415 498 443.5 462 Q472 426 488 376 Q504 326 504 264 Q504 203 487.5 152.5 Q471 102 440.5 66 Q410 30 367.5 10.5 Q325 -9 273 -9 Q235 -9 205 8.5 Q175 26 154 64 L154 0 L60 0 L56 775 L150 775 Z M154 264 Q154 162 189.5 115.5 Q225 69 284 69 Q344 69 379 122.5 Q414 176 414 264 Q414 354 379 407 Q344 460 284 460 Q225 460 189.5 413 Q154 366 154 264 Z " />
<glyph glyph-name="c" unicode="c" horiz-adv-x="502" d="M255 536 Q314 536 355.5 521.5 Q397 507 423 480 Q449 453 461 415.5 Q473 378 473 331 L381 332 Q381 391 352 426.5 Q323 462 255 462 Q198 462 164 414.5 Q130 367 130 264 Q130 162 164 115 Q198 68 255 68 Q312 68 345.5 101.5 Q379 135 379 190 L473 191 Q473 146 457.5 108.5 Q442 71 413.5 45 Q385 19 345 4.5 Q305 -10 255 -10 Q204 -10 162 6 Q120 22 90.5 56 Q61 90 44.5 141.5 Q28 193 28 264 Q28 335 44.5 386 Q61 437 90.5 470.5 Q120 504 162 520 Q204 536 255 536 Z " />
<glyph glyph-name="d" unicode="d" horiz-adv-x="536" d="M257 539 Q305 539 341 515.5 Q377 492 402 447 L402 775 L496 775 L496 0 L402 0 L402 82 Q377 37 341 14 Q305 -9 257 -9 Q205 -9 162.5 10.5 Q120 30 89.5 66 Q59 102 42.5 152.5 Q26 203 26 264 Q26 326 42.5 376.5 Q59 427 89.5 463 Q120 499 162.5 519 Q205 539 257 539 Z M259 69 Q291 69 317.5 83 Q344 97 363 122.5 Q382 148 392 184 Q402 220 402 264 Q402 309 391.5 345.5 Q381 382 362 408 Q343 434 316.5 448 Q290 462 258 462 Q227 462 201 448 Q175 434 156.5 408 Q138 382 128 345.5 Q118 309 118 264 Q118 220 128 184 Q138 148 156.5 122.5 Q175 97 201 83 Q227 69 259 69 Z " />
<glyph glyph-name="e" unicode="e" horiz-adv-x="514" d="M32 264 Q32 335 48.5 386 Q65 437 95 471 Q125 505 167.5 521 Q210 537 262 537 Q324 537 368 516.5 Q412 496 439.5 459 Q467 422 479.5 370 Q492 318 492 254 L398 254 L134 255 Q136 158 175.5 113 Q215 68 278 68 Q332 68 363 100 Q394 132 394 186 L488 186 Q488 142 473 105.5 Q458 69 430.5 43.5 Q403 18 364 4 Q325 -10 278 -10 Q223 -10 177.5 6 Q132 22 99.5 56 Q67 90 49.5 141.5 Q32 193 32 264 Z M137 320 L394 319 Q385 386 353.5 425 Q322 464 262 464 Q211 464 179 429.5 Q147 395 137 320 Z " />
<glyph glyph-name="f" unicode="f" horiz-adv-x="285" d="M20 454 L20 527 L90 527 L90 646 Q90 716 115.5 745.5 Q141 775 204 775 L285 775 L285 697 L229 698 Q205 698 194.5 686 Q184 674 184 646 L184 527 L285 527 L285 454 L184 454 L184 0 L90 0 L90 454 L20 454 Z " />
<glyph glyph-name="g" unicode="g" horiz-adv-x="552" d="M48 264 Q48 338 62.5 390.5 Q77 443 103 476 Q129 509 166 524 Q203 539 248 539 Q296 539 334.5 514.5 Q373 490 398 445 L398 527 L492 527 L492 30 Q492 -29 480.5 -76.5 Q469 -124 443.5 -158 Q418 -192 377.5 -210.5 Q337 -229 280 -229 Q238 -229 199 -221 Q160 -213 130 -191 Q100 -169 82 -131 Q64 -93 63 -34 L163 -34 Q164 -60 168.5 -81.5 Q173 -103 185 -119 Q197 -135 218 -143.5 Q239 -152 272 -152 Q340 -152 369 -113 Q398 -74 398 -10 L398 65 Q355 -14 272 -14 Q222 -14 180.5 1.5 Q139 17 109.5 50 Q80 83 64 136 Q48 189 48 264 Z M285 65 Q311 65 331.5 79.5 Q352 94 367 120 Q382 146 390 182.5 Q398 219 398 264 Q398 308 389.5 344.5 Q381 381 365 407 Q349 433 327 447 Q305 461 278 461 Q216 461 178 415.5 Q140 370 140 264 Q140 210 150.5 172.5 Q161 135 180 111 Q199 87 225.5 76 Q252 65 285 65 Z " />
<glyph glyph-name="h" unicode="h" horiz-adv-x="496" d="M60 775 L154 775 L154 451 Q173 490 202 511.5 Q231 533 268 533 Q344 533 390 480.5 Q436 428 436 322 L436 0 L342 0 L342 322 Q342 385 317.5 416.5 Q293 448 253 448 Q208 448 181 405.5 Q154 363 154 294 L154 0 L60 0 L60 775 Z " />
<glyph glyph-name="i" unicode="i" horiz-adv-x="284" d="M110 527 L204 527 L204 0 L110 0 L110 527 Z M106 710 L208 710 L208 607 L106 607 L106 710 Z " />
<glyph glyph-name="j" unicode="j" horiz-adv-x="194" d="M-37 -217 L-37 -139 L-13 -139 Q2 -139 11.5 -138 Q21 -137 26.5 -130 Q32 -123 34.5 -108 Q37 -93 37 -65 L40 527 L134 527 L131 -65 Q130 -122 124.5 -153 Q119 -184 105.5 -198 Q92 -212 69.5 -214.5 Q47 -217 12 -217 L-37 -217 Z M138 710 L138 607 L36 607 L36 710 L138 710 Z " />
<glyph glyph-name="k" unicode="k" horiz-adv-x="467" d="M154 775 L154 315 L336 527 L444 527 L291 354 L467 0 L356 0 L222 276 L154 199 L154 0 L60 0 L60 775 L154 775 Z " />
<glyph glyph-name="l" unicode="l" horiz-adv-x="224" d="M70 0 L70 775 L164 775 L164 0 L70 0 Z " />
<glyph glyph-name="m" unicode="m" horiz-adv-x="760" d="M55 527 L149 527 L149 456 Q168 495 196 516.5 Q224 538 259 538 Q368 538 403 422 Q422 477 456 507.5 Q490 538 536 538 Q612 538 658.5 485.5 Q705 433 705 330 L705 0 L611 0 L611 330 Q611 391 588.5 422 Q566 453 529 453 Q478 453 446.5 409 Q415 365 415 293 L415 0 L321 0 L321 330 Q321 391 300 422 Q279 453 244 453 Q202 453 175.5 409 Q149 365 149 293 L149 0 L55 0 L55 527 Z " />
<glyph glyph-name="n" unicode="n" horiz-adv-x="486" d="M55 527 L149 527 L149 458 Q169 496 199.5 517.5 Q230 539 268 539 Q343 539 387 485 Q431 431 431 322 L431 0 L337 0 L337 322 Q337 388 313.5 421 Q290 454 251 454 Q205 454 177 414 Q149 374 149 308 L149 0 L55 0 L55 527 Z " />
<glyph glyph-name="o" unicode="o" horiz-adv-x="546" d="M273 541 Q333 541 377 521 Q421 501 449.5 464.5 Q478 428 492 377 Q506 326 506 264 Q506 193 489.5 141 Q473 89 442 55 Q411 21 368.5 4.5 Q326 -12 273 -12 Q213 -12 168.5 8 Q124 28 95.5 64 Q67 100 53 151 Q39 202 39 264 Q39 336 56 388 Q73 440 103.5 474 Q134 508 177.5 524.5 Q221 541 273 541 Z M142 264 Q142 171 174 114.5 Q206 58 273 58 Q333 58 368.5 107 Q404 156 404 264 Q404 311 396 349.5 Q388 388 372 415 Q356 442 331.5 457 Q307 472 273 472 Q214 472 178 422 Q142 372 142 264 Z " />
<glyph glyph-name="p" unicode="p" horiz-adv-x="543" d="M60 527 L154 527 L154 454 Q178 496 215 516.5 Q252 537 298 537 Q345 537 382.5 517.5 Q420 498 447 462 Q474 426 488.5 376 Q503 326 503 264 Q503 203 488.5 152.5 Q474 102 447 66 Q420 30 382.5 10.5 Q345 -9 298 -9 Q252 -9 215 11.5 Q178 32 154 74 L154 -197 L60 -197 L60 527 Z M154 264 Q154 162 188.5 114.5 Q223 67 279 67 Q309 67 333.5 81 Q358 95 375 121 Q392 147 401.5 183 Q411 219 411 264 Q411 308 402 344.5 Q393 381 376.5 406.5 Q360 432 337 446 Q314 460 285 460 Q225 460 189.5 413 Q154 366 154 264 Z " />
<glyph glyph-name="q" unicode="q" horiz-adv-x="548" d="M48 264 Q48 325 63 375 Q78 425 105 461 Q132 497 170 516.5 Q208 536 254 536 Q299 536 334.5 512.5 Q370 489 394 447 L394 527 L488 527 L488 -207 L394 -207 L394 86 Q370 44 334.5 21.5 Q299 -1 254 -1 Q208 -1 170 18 Q132 37 105 72 Q78 107 63 155.5 Q48 204 48 264 Z M140 264 Q140 179 173.5 127.5 Q207 76 264 76 Q324 76 359 127.5 Q394 179 394 264 Q394 352 359 405.5 Q324 459 266 459 Q238 459 214.5 445 Q191 431 174.5 405.5 Q158 380 149 344 Q140 308 140 264 Z " />
<glyph glyph-name="r" unicode="r" horiz-adv-x="333" d="M154 527 L154 432 Q176 483 215 510 Q254 537 314 537 L323 537 L323 435 L305 435 Q265 435 236 421.5 Q207 408 189 383 Q171 358 162.5 323 Q154 288 154 246 L154 0 L60 0 L60 527 L154 527 Z " />
<glyph glyph-name="s" unicode="s" horiz-adv-x="475" d="M109 188 Q109 155 120 131.5 Q131 108 148 93.5 Q165 79 187 72 Q209 65 231 65 Q251 65 270 70 Q289 75 304 84.5 Q319 94 328 107.5 Q337 121 337 137 Q337 176 315.5 194.5 Q294 213 261.5 223.5 Q229 234 191 241 Q153 248 120.5 262.5 Q88 277 66.5 304.5 Q45 332 45 384 Q45 420 61.5 449 Q78 478 105.5 498.5 Q133 519 168 529.5 Q203 540 239 540 Q275 540 309 529 Q343 518 369.5 495 Q396 472 412 436 Q428 400 428 350 L344 350 Q344 383 335 405.5 Q326 428 311 442.5 Q296 457 277 463.5 Q258 470 238 470 Q219 470 200 464.5 Q181 459 166.5 448.5 Q152 438 143 423.5 Q134 409 134 392 Q134 362 156 347.5 Q178 333 211 324.5 Q244 316 282 308 Q320 300 353 282.5 Q386 265 408 233.5 Q430 202 430 145 Q430 108 412.5 79.5 Q395 51 366.5 31 Q338 11 301.5 0.5 Q265 -10 227 -10 Q188 -10 150.5 1.5 Q113 13 83 37 Q53 61 35 98.5 Q17 136 17 188 L109 188 Z " />
<glyph glyph-name="t" unicode="t" horiz-adv-x="299" d="M0 527 L78 527 L78 664 L172 664 L172 527 L279 527 L279 454 L172 454 L173 142 Q173 124 174 111.5 Q175 99 179.5 91.5 Q184 84 193.5 80.5 Q203 77 220 77 L279 77 L279 0 L178 0 Q142 0 122 7.5 Q102 15 92 31.5 Q82 48 80 75 Q78 102 78 142 L78 454 L0 454 L0 527 Z " />
<glyph glyph-name="u" unicode="u" horiz-adv-x="489" d="M55 191 L55 527 L149 527 L149 191 Q149 133 167 103.5 Q185 74 235 74 Q280 74 307 112.5 Q334 151 334 215 L334 527 L429 527 L429 0 L334 0 L334 78 Q315 36 285 12.5 Q255 -11 216 -11 Q169 -11 138 2 Q107 15 88.5 40.5 Q70 66 62.5 104 Q55 142 55 191 Z " />
<glyph glyph-name="v" unicode="v" horiz-adv-x="444" d="M5 527 L112 527 L223 112 L337 527 L444 527 L273 0 L171 0 L5 527 Z " />
<glyph glyph-name="w" unicode="w" horiz-adv-x="728" d="M29 527 L129 527 L222 112 L326 527 L408 527 L512 112 L604 527 L704 527 L560 0 L466 0 L367 375 L267 0 L173 0 L29 527 Z " />
<glyph glyph-name="x" unicode="x" horiz-adv-x="441" d="M-62 0 L143 295 L-7 527 L105 527 L201 378 L305 527 L419 527 L256 293 L446 0 L334 0 L198 210 L52 0 L-62 0 Z " />
<glyph glyph-name="y" unicode="y" horiz-adv-x="443" d="M112 527 L222 126 L336 527 L443 527 L250 -70 Q237 -111 223 -138 Q209 -165 191 -181 Q173 -197 149 -203.5 Q125 -210 90 -210 L40 -210 L40 -128 L90 -128 Q123 -128 141 -108.5 Q159 -89 176 -34 L180 -18 L5 527 L112 527 Z " />
<glyph glyph-name="z" unicode="z" horiz-adv-x="414" d="M20 57 L270 454 L35 454 L35 527 L388 527 L388 470 L134 74 L404 74 L404 0 L20 0 L20 57 Z " />
</font>
</svg>
